<svg width="268" height="41" viewBox="0 0 268 41" fill="none" xmlns="http://www.w3.org/2000/svg">
    <g clip-path="url(#clip0_934_93710)">
        <mask id="mask0_934_93710" style="mask-type:luminance" maskUnits="userSpaceOnUse" x="0" y="0" width="268"
              height="41">
            <path d="M28.157 0.694336H24.2217L0.5 40.6943H22.9099L26.1926 34.7001L29.4752 40.6943H51.8787L28.157 0.694336ZM26.1926 5.66392L36.9258 24.0885H15.4593L26.1926 5.66392ZM20.0085 36.5957H8.1703L13.0749 28.1807H24.9131L20.0085 36.5957ZM27.472 28.1807H39.3103L44.2084 36.5957H32.3702L27.4656 28.1807H27.472ZM73.4292 40.15H67.9689L79.5939 13.003H85.2997L96.9247 40.15H91.4644L88.3433 32.7468H79.2449L81.0801 28.3793H86.5081L82.45 18.0815L73.4292 40.15ZM224.69 40.15H219.229L230.854 13.003H236.56L248.185 40.15H242.725L239.604 32.7468H230.506L232.341 28.3793H237.769L233.711 18.0815L224.69 40.15ZM115.322 13.0094V17.377H107.471V40.1564H102.392V17.3706H94.5403V13.003H115.322V13.0094ZM126.818 40.1564V13.0094H137.544C146.61 13.0094 151.147 17.2874 151.147 25.8432C151.147 35.3853 146.61 40.1564 137.544 40.1564H126.818ZM137.544 35.7888C143.224 35.7888 146.068 32.4715 146.068 25.8432C146.068 20.2012 143.224 17.377 137.544 17.377H131.897V35.7888H137.544ZM160.529 13.0094V40.1564H155.45V13.0094H160.529ZM188.109 38.9012C185.899 39.8618 183.133 40.3421 179.812 40.3421C170.145 40.3421 165.311 35.6287 165.311 26.2019C165.311 17.281 170.229 12.8173 180.057 12.8173C183.056 12.8173 185.737 13.2592 188.102 14.1429V18.6963C185.737 17.6844 183.185 17.1785 180.439 17.1785C173.86 17.1785 170.571 20.182 170.571 26.1955C170.571 32.7148 173.673 35.9745 179.883 35.9745C180.8 35.9745 181.847 35.8208 183.023 35.5198V27.6236H188.102V38.9012H188.109ZM197.976 13.0094V40.1564H192.897V13.0094H197.976ZM221.633 13.0094V17.377H213.782V40.1564H208.703V17.3706H200.852V13.003H221.633V13.0094ZM256.631 13.0094V35.7888H267.513V40.1564H251.558V13.0094H256.638H256.631Z"
                  fill="white"/>
        </mask>
        <g mask="url(#mask0_934_93710)">
            <path d="M267.5 0.694336H0.5V40.6943H267.5V0.694336Z" fill="url(#paint0_linear_934_93710)"/>
        </g>
    </g>
    <defs>
        <linearGradient id="paint0_linear_934_93710" x1="57.1581" y1="96.8455" x2="209.461" y2="-56.8257"
                        gradientUnits="userSpaceOnUse">
            <stop stop-color="white"/>
            <stop offset="1" stop-color="white"/>
        </linearGradient>
        <clipPath id="clip0_934_93710">
            <rect width="267" height="40" fill="white" transform="translate(0.5 0.694336)"/>
        </clipPath>
    </defs>
</svg>
